<?xml version="1.0" encoding="utf-8"?>
<!-- Generated by IcoMoon.io -->
<!DOCTYPE svg PUBLIC "-//W3C//DTD SVG 1.1//EN" "http://www.w3.org/Graphics/SVG/1.1/DTD/svg11.dtd">
<svg version="1.1" xmlns="http://www.w3.org/2000/svg" xmlns:xlink="http://www.w3.org/1999/xlink" width="30" height="32" viewBox="0 0 30 32">
<path fill="rgb(0, 0, 0)" d="M27 17.063c1.688 0 3 1.25 3 2.938s-1.313 3.063-3 3.063c-1.313 0-2.375-0.813-2.813-1.938h-3.188c-0.438 0-0.813-0.25-0.938-0.688l-1-2.938-3.125 10.813c-0.125 0.438-0.5 0.688-0.938 0.688h-0.063c-0.438 0-0.875-0.313-0.938-0.75l-3.188-19.25-2.813 11.375c-0.125 0.438-0.563 0.75-1 0.75h-7v-2h6.188l3.813-15.313c0.125-0.438 0.5-0.813 1-0.813s0.938 0.438 1 0.875l3.25 19.625 2.813-9.688c0.125-0.438 0.5-0.688 0.938-0.688v0c0.438 0 0.813 0.25 0.938 0.688l1.813 5.313h2.375c0.375-1.188 1.563-2.063 2.875-2.063z"></path>
</svg>
