<?xml version="1.0" encoding="utf-8"?>
<!-- Generator: Adobe Illustrator 19.1.0, SVG Export Plug-In . SVG Version: 6.00 Build 0)  -->
<svg version="1.1" id="Layer_1" xmlns="http://www.w3.org/2000/svg" xmlns:xlink="http://www.w3.org/1999/xlink" x="0px" y="0px"
	 viewBox="-466 265 26 32" style="enable-background:new -466 265 26 32;" xml:space="preserve">
<style type="text/css">
	.st0{fill:#FFFFFF;}
</style>
<path class="st0" d="M-453,293.1c-7.2,0-13-5.6-13-12.5c0-6.9,5.8-12.6,13-12.6s13,5.6,13,12.6c0,2.5-0.8,4.8-2.1,6.8
	c-0.1,0.1-0.1,0.2-0.2,0.2l0,0c-0.1,0.2-0.2,0.6-0.2,0.9l1.4,5.5l-5.2-1.9c-0.2-0.1-0.5-0.1-0.8-0.1s-0.4,0.1-0.7,0.1l0,0
	c-0.1,0-0.1,0.1-0.1,0.1C-449.5,292.8-451.2,293.1-453,293.1L-453,293.1z"/>
</svg>
