<?xml version="1.0" encoding="UTF-8" standalone="no"?>
<svg width="16px" height="17px" viewBox="0 0 16 17" version="1.1" xmlns="http://www.w3.org/2000/svg" xmlns:xlink="http://www.w3.org/1999/xlink" xmlns:sketch="http://www.bohemiancoding.com/sketch/ns">
    <!-- Generator: Sketch 3.4.1 (15681) - http://www.bohemiancoding.com/sketch -->
    <title>linkedin</title>
    <desc>Created with Sketch.</desc>
    <defs></defs>
    <g id="Page-1" stroke="none" stroke-width="1" fill="none" fill-rule="evenodd" sketch:type="MSPage">
        <g id="linkedin" sketch:type="MSLayerGroup" fill="#3D5AFE">
            <path d="M3.5,16.5 L0.1,16.5 L0.1,5.2 L3.5,5.2 L3.5,16.5 L3.5,16.5 Z M15.9,16.5 L12.5,16.5 L12.5,10.5 C12.5,8.9 11.9,8.1 10.8,8.1 C9.9,8.1 9.3,8.6 9.1,9.5 L9.1,16.6 L5.7,16.6 L5.7,5.3 L8.4,5.3 L8.6,7.6 L8.7,7.6 C9.4,6.5 10.5,5.7 12,5.7 C13.1,5.7 14.1,6 14.8,6.8 C15.5,7.6 15.9,8.7 15.9,10.2 L15.9,16.5 L15.9,16.5 L15.9,16.5 Z" id="Shape" sketch:type="MSShapeGroup"></path>
            <path d="M3.5,2.1 C3.5,3 2.7,3.8 1.8,3.8 C0.9,3.8 0.1,3 0.1,2.1 C0.1,1.2 0.9,0.4 1.8,0.4 C2.7,0.4 3.5,1.2 3.5,2.1 L3.5,2.1 Z" id="Shape" sketch:type="MSShapeGroup"></path>
        </g>
    </g>
</svg>