<?xml version="1.0" encoding="UTF-8" standalone="no"?>
<svg width="20px" height="16px" viewBox="0 0 20 16" version="1.1" xmlns="http://www.w3.org/2000/svg" xmlns:xlink="http://www.w3.org/1999/xlink" xmlns:sketch="http://www.bohemiancoding.com/sketch/ns">
    <!-- Generator: Sketch 3.4.1 (15681) - http://www.bohemiancoding.com/sketch -->
    <title>Shape</title>
    <desc>Created with Sketch.</desc>
    <defs></defs>
    <g id="Page-1" stroke="none" stroke-width="1" fill="none" fill-rule="evenodd" sketch:type="MSPage">
        <g id="mail" sketch:type="MSLayerGroup" fill="#3D5AFE">
            <path d="M18,4 L18,2 L10,7 L2,2 L2,4 L10,9 L18,4 L18,4 Z M18,0 C18.5,0 19,0.2 19.4,0.6 C19.8,1 20,1.5 20,2 L20,14 C20,14.5 19.8,15 19.4,15.4 C19,15.8 18.5,16 18,16 L2,16 C1.5,16 1,15.8 0.6,15.4 C0.2,15 0,14.5 0,14 L0,2 C0,1.5 0.2,1 0.6,0.6 C1,0.2 1.5,0 2,0 L18,0 L18,0 Z" id="Shape" sketch:type="MSShapeGroup"></path>
        </g>
    </g>
</svg>