<?xml version="1.0" encoding="utf-8"?>
<!-- Generator: Adobe Illustrator 19.1.0, SVG Export Plug-In . SVG Version: 6.00 Build 0)  -->
<svg version="1.1" id="Layer_1" xmlns="http://www.w3.org/2000/svg" xmlns:xlink="http://www.w3.org/1999/xlink" x="0px" y="0px"
	 viewBox="-95 -104 768 768" style="enable-background:new -95 -104 768 768;" xml:space="preserve">
<style type="text/css">
	.st0{fill:#00BCD4;}
</style>
<g id="icomoon-ignore">
</g>
<path class="st0" d="M363.5,271v-96H395v96H363.5z M42.5,95.5V544H491v63H42.5c-17,0-31.8-6.2-44.2-18.8
	C-14.1,575.6-20.5,561-20.5,544V95.5H42.5z M203,208v-33h31.5v33H203z M570.5,175v-48h-96v192h48v-63h48v-48h-48v-33H570.5z
	 M443,271v-96c0-13-4.5-24.2-13.5-33.8c-9-9.6-20.5-14.2-34.5-14.2h-79.5v192H395c14,0,25.5-4.8,34.5-14.2
	C438.5,295.4,443,284,443,271z M282.5,208v-33c0-13-4.8-24.2-14.2-33.8c-9.4-9.6-20.8-14.2-33.8-14.2H155v192h48v-63h31.5
	c13,0,24.2-4.8,33.8-14.2C277.9,232.4,282.5,221,282.5,208z M555.5-32c17,0,31.8,6.2,44.2,18.8C612.1-0.6,618.5,14,618.5,31v384
	c0,17-6.2,32-18.8,45s-27.2,19.5-44.2,19.5h-384c-17,0-32-6.5-45-19.5S107,432,107,415V31c0-17,6.5-31.8,19.5-44.2s28-18.8,45-18.8
	H555.5z"/>
</svg>
