<?xml version="1.0" encoding="utf-8"?>
<!-- Generator: Adobe Illustrator 19.1.0, SVG Export Plug-In . SVG Version: 6.00 Build 0)  -->
<svg version="1.1" id="Layer_1" xmlns="http://www.w3.org/2000/svg" xmlns:xlink="http://www.w3.org/1999/xlink" x="0px" y="0px"
	 viewBox="-95 -104 768 768" style="enable-background:new -95 -104 768 768;" xml:space="preserve">
<style type="text/css">
	.st0{fill:#00BCD4;}
</style>
<g id="icomoon-ignore">
</g>
<path class="st0" d="M385,280c0-26-9.5-48.5-28.5-67.5S315,184,289,184v-64.5c44,0,81.8,15.8,113.2,47.2S449.5,236,449.5,280H385z
	 M512.5,280c0-62-21.8-114.8-65.2-158.2S351,56.5,289,56.5V-8c80,0,148,28,204,84s84,124,84,204H512.5z M545.5,392.5
	c9,0,16.5,3,22.5,9s9,13.5,9,22.5v112.5c0,9-3,16.5-9,22.5s-13.5,9-22.5,9c-150,0-278.2-53.2-384.8-159.8S1,173.5,1,23.5
	C1,14.5,4,7,10,1s13.5-9,22.5-9H145c9,0,16.5,3,22.5,9s9,13.5,9,22.5c0,40,6,78,18,114c4,13,1.5,24-7.5,33L116.5,241
	c47,92,117.5,162.5,211.5,211.5l70.5-70.5c9-9,20-11.5,33-7.5C467.5,386.5,505.5,392.5,545.5,392.5z"/>
</svg>
