<?xml version="1.0" encoding="UTF-8" standalone="no"?>
<svg width="577px" height="576px" viewBox="0 0 577 576" version="1.1" xmlns="http://www.w3.org/2000/svg" xmlns:xlink="http://www.w3.org/1999/xlink" xmlns:sketch="http://www.bohemiancoding.com/sketch/ns">
    <!-- Generator: Sketch 3.4.1 (15681) - http://www.bohemiancoding.com/sketch -->
    <title>phone copy</title>
    <desc>Created with Sketch.</desc>
    <defs></defs>
    <g id="Page-1" stroke="none" stroke-width="1" fill="none" fill-rule="evenodd" sketch:type="MSPage">
        <g id="phone" sketch:type="MSLayerGroup">
            <g id="icomoon-ignore" transform="translate(0.000000, 8.000000)"></g>
            <path d="M385,288 C385,262 375.5,239.5 356.5,220.5 C337.5,201.5 315,192 289,192 L289,127.5 C333,127.5 370.8,143.3 402.2,174.7 C433.6,206.1 449.5,244 449.5,288 L385,288 L385,288 Z M512.5,288 C512.5,226 490.7,173.2 447.3,129.8 C403.9,86.4 351,64.5 289,64.5 L289,0 C369,0 437,28 493,84 C549,140 577,208 577,288 L512.5,288 L512.5,288 Z M545.5,400.5 C554.5,400.5 562,403.5 568,409.5 C574,415.5 577,423 577,432 L577,544.5 C577,553.5 574,561 568,567 C562,573 554.5,576 545.5,576 C395.5,576 267.3,522.8 160.7,416.2 C54.1,309.6 1,181.5 1,31.5 C1,22.5 4,15 10,9 C16,3 23.5,0 32.5,0 L145,0 C154,0 161.5,3 167.5,9 C173.5,15 176.5,22.5 176.5,31.5 C176.5,71.5 182.5,109.5 194.5,145.5 C198.5,158.5 196,169.5 187,178.5 L116.5,249 C163.5,341 234,411.5 328,460.5 L398.5,390 C407.5,381 418.5,378.5 431.5,382.5 C467.5,394.5 505.5,400.5 545.5,400.5 L545.5,400.5 Z" id="Shape" fill="#3D5AFE" sketch:type="MSShapeGroup"></path>
        </g>
    </g>
</svg>